<svg xmlns="http://www.w3.org/2000/svg" viewBox="0 0 512 512">
  <defs><linearGradient id="g" x1="0" y1="0" x2="0" y2="1"><stop offset="0" stop-color="#60a5fa"/><stop offset="1" stop-color="#1e3a8a"/></linearGradient></defs>
  <rect width="512" height="512" rx="112" fill="url(#g)"/>
  <circle cx="380" cy="120" r="34" fill="#fef9c3"/>
  <g fill="#e7e5e4" stroke="#57534e" stroke-width="10" stroke-linejoin="round">
    <rect x="96" y="230" width="320" height="150"/>
    <rect x="70" y="150" width="80" height="230"/><rect x="362" y="150" width="80" height="230"/>
    <rect x="216" y="120" width="80" height="120"/>
  </g>
  <g fill="#2563eb" stroke="#57534e" stroke-width="10" stroke-linejoin="round">
    <path d="M60 150 L110 80 L160 150 Z"/><path d="M352 150 L402 80 L452 150 Z"/><path d="M206 120 L256 50 L306 120 Z"/>
  </g>
  <path d="M256 50 L256 20 L292 30 L256 42 Z" fill="#fde047"/>
  <path d="M226 380 L226 320 A30 30 0 0 1 286 320 L286 380 Z" fill="#92400e" stroke="#57534e" stroke-width="8"/>
  <rect x="120" y="270" width="24" height="36" rx="12" fill="#7dd3fc"/><rect x="368" y="270" width="24" height="36" rx="12" fill="#7dd3fc"/><rect x="244" y="160" width="24" height="36" rx="12" fill="#7dd3fc"/>
  <text x="256" y="450" font-family="Arial Rounded MT Bold, Arial, sans-serif" font-size="58" font-weight="bold" text-anchor="middle" fill="#fff">Castle</text>
</svg>
